<!DOCTYPE svg PUBLIC "-//W3C//DTD SVG 1.1//EN" "http://www.w3.org/Graphics/SVG/1.1/DTD/svg11.dtd">
<!-- Uploaded to: SVG Repo, www.svgrepo.com, Transformed by: SVG Repo Mixer Tools -->
<svg height="204px" width="204px" version="1.1" id="_x32_" xmlns="http://www.w3.org/2000/svg" xmlns:xlink="http://www.w3.org/1999/xlink" viewBox="-312.32 -312.32 1136.64 1136.64" xml:space="preserve" fill="#000000" stroke="#000000" transform="rotate(45)">
<g id="SVGRepo_bgCarrier" stroke-width="0" transform="translate(5.1200000000000045,5.1200000000000045), scale(0.98)">
<path transform="translate(-312.32, -312.32), scale(35.52)" d="M16,26.849105146247894C19.62610346878526,27.012485662890054,23.69417567813492,28.80920769575909,26.467959216750444,26.467959216750444C29.310969461955292,24.068279025514563,29.37788172490268,19.683221523710003,28.853428217116743,16C28.39857237348858,12.805560819853767,26.35117158773107,10.190375356773723,23.85846210041395,8.141537899586051C21.633504030901385,6.3127738752650036,18.868706367004037,5.690974255505605,16,5.435357261449099C12.731964095448541,5.144157881826779,9.083950925781576,4.455802446753491,6.604080757238917,6.604080757238913C4.036273267194568,8.828537991468266,3.8350310199180315,12.602806440258892,3.8046795702539384,15.999999999999998C3.7739683278311933,19.437464639246656,3.866302818207739,23.28046829238599,6.434675860531106,25.56532413946889C8.933350564302494,27.788175498205188,12.659074415753896,26.698573824481723,16,26.849105146247894" fill="#7ed0ec" strokewidth="0"/>
</g>
<g id="SVGRepo_tracerCarrier" stroke-linecap="round" stroke-linejoin="round" stroke="#CCCCCC" stroke-width="15.36"> <style type="text/css"> .st0{fill:#f3241f;} </style> <g> <path class="st0" d="M256,198.494c-24.037,0.008-45.646,9.768-61.446,25.68c-15.76,15.94-25.496,37.826-25.519,62.17 c0.023,24.361,9.759,46.238,25.519,62.151c15.8,15.931,37.409,25.698,61.446,25.698c24.009,0,45.642-9.767,61.432-25.698 c15.778-15.912,25.514-37.79,25.523-62.151c-0.008-24.344-9.754-46.23-25.523-62.17C301.642,208.262,280.009,198.502,256,198.494z M256,340.506c-29.657,0-53.689-24.235-53.689-54.163c0-29.919,24.032-54.163,53.689-54.163c29.657,0,53.688,24.244,53.688,54.163 C309.688,316.272,285.657,340.506,256,340.506z"/> <path class="st0" d="M496.774,135.592c-9.344-9.461-22.509-15.416-36.886-15.416h-56.404c-4.545,0.018-8.783-2.702-10.734-7.093 l-16.898-37.826c-8.358-18.741-26.936-30.931-47.557-30.931H183.706c-20.616,0-39.199,12.19-47.576,30.931l-16.88,37.826 c-1.952,4.391-6.195,7.111-10.731,7.093H52.112c-14.372,0-27.56,5.954-36.922,15.416C5.824,145.026,0,158.21,0,172.569v242.73 c0,14.368,5.824,27.543,15.19,36.976c9.361,9.462,22.554,15.416,36.922,15.398h224.554h183.222 c14.378,0.018,27.543-5.937,36.886-15.398c9.407-9.433,15.226-22.608,15.226-36.976v-242.73 C512,158.21,506.181,145.008,496.774,135.592z M339.458,370.334c-21.276,21.515-50.887,34.89-83.458,34.89 c-32.585,0-62.182-13.374-83.463-34.89c-21.321-21.46-34.523-51.262-34.504-83.991c-0.019-32.729,13.184-62.504,34.504-84 c21.28-21.498,50.874-34.889,83.463-34.862c32.571-0.027,62.182,13.364,83.458,34.862c21.321,21.497,34.532,51.271,34.505,84 C373.99,319.072,360.779,348.874,339.458,370.334z M461.967,214.542h-35.793V178.74h35.793V214.542z"/> </g> </g>
<g id="SVGRepo_iconCarrier"> <style type="text/css"> .st0{fill:#f3241f;} </style> <g> <path class="st0" d="M256,198.494c-24.037,0.008-45.646,9.768-61.446,25.68c-15.76,15.94-25.496,37.826-25.519,62.17 c0.023,24.361,9.759,46.238,25.519,62.151c15.8,15.931,37.409,25.698,61.446,25.698c24.009,0,45.642-9.767,61.432-25.698 c15.778-15.912,25.514-37.79,25.523-62.151c-0.008-24.344-9.754-46.23-25.523-62.17C301.642,208.262,280.009,198.502,256,198.494z M256,340.506c-29.657,0-53.689-24.235-53.689-54.163c0-29.919,24.032-54.163,53.689-54.163c29.657,0,53.688,24.244,53.688,54.163 C309.688,316.272,285.657,340.506,256,340.506z"/> <path class="st0" d="M496.774,135.592c-9.344-9.461-22.509-15.416-36.886-15.416h-56.404c-4.545,0.018-8.783-2.702-10.734-7.093 l-16.898-37.826c-8.358-18.741-26.936-30.931-47.557-30.931H183.706c-20.616,0-39.199,12.19-47.576,30.931l-16.88,37.826 c-1.952,4.391-6.195,7.111-10.731,7.093H52.112c-14.372,0-27.56,5.954-36.922,15.416C5.824,145.026,0,158.21,0,172.569v242.73 c0,14.368,5.824,27.543,15.19,36.976c9.361,9.462,22.554,15.416,36.922,15.398h224.554h183.222 c14.378,0.018,27.543-5.937,36.886-15.398c9.407-9.433,15.226-22.608,15.226-36.976v-242.73 C512,158.21,506.181,145.008,496.774,135.592z M339.458,370.334c-21.276,21.515-50.887,34.89-83.458,34.89 c-32.585,0-62.182-13.374-83.463-34.89c-21.321-21.46-34.523-51.262-34.504-83.991c-0.019-32.729,13.184-62.504,34.504-84 c21.28-21.498,50.874-34.889,83.463-34.862c32.571-0.027,62.182,13.364,83.458,34.862c21.321,21.497,34.532,51.271,34.505,84 C373.99,319.072,360.779,348.874,339.458,370.334z M461.967,214.542h-35.793V178.74h35.793V214.542z"/> </g> </g>
</svg>